<?xml version="1.0" standalone="no"?>
<svg viewBox="0 0 200 200" xmlns="http://www.w3.org/2000/svg">
  <path fill="#FF0066" d="M35.5,-63.7C47.2,-54.6,58.9,-47.7,61.8,-37.5C64.7,-27.2,58.7,-13.6,59.6,0.5C60.6,14.7,68.4,29.4,65.5,39.5C62.6,49.6,48.8,55.2,36.1,63.1C23.4,71.1,11.7,81.5,-1.1,83.4C-13.9,85.3,-27.8,78.8,-37.9,69.3C-47.9,59.8,-54.1,47.3,-56.9,35.3C-59.6,23.2,-59,11.6,-58.7,0.2C-58.4,-11.3,-58.5,-22.5,-55.3,-33.9C-52.2,-45.3,-45.8,-56.8,-36.1,-67.1C-26.3,-77.4,-13.2,-86.4,-0.7,-85.3C11.8,-84.2,23.7,-72.8,35.5,-63.7Z" transform="translate(100 100)" />
</svg>
